<svg version="1.1" id="Layer_1" xmlns="http://www.w3.org/2000/svg" xmlns:xlink="http://www.w3.org/1999/xlink" x="0px" y="0px"
	 width="100%" viewBox="0 0 525 525" enable-background="new 0 0 525 525" xml:space="preserve">
<path fill="#B5252C" opacity="1.000000" stroke="none" 
	d="
M1.000000,473.000000 
	C1.000000,315.712250 1.000000,158.424530 1.000000,1.068392 
	C175.903656,1.068392 350.807373,1.068392 526.000000,1.068392 
	C526.000000,158.024780 526.000000,315.049744 525.531372,472.537262 
	C350.375122,472.999878 175.687561,472.999939 1.000000,473.000000 
M154.164719,118.499931 
	C154.164719,214.236557 154.164719,309.973175 154.164719,405.631348 
	C167.563553,405.631348 180.292603,405.631348 193.348907,405.631348 
	C193.348907,355.661621 193.348907,306.062134 193.348907,256.002258 
	C206.800369,256.002258 219.927048,256.234100 233.037369,255.872620 
	C237.442886,255.751160 239.867065,257.342224 242.354385,260.711334 
	C277.167969,307.867157 312.149323,354.899109 346.948761,402.065308 
	C349.210968,405.131470 351.509796,406.140228 355.187683,406.085785 
	C369.180664,405.878571 383.178528,406.009003 397.174591,405.991394 
	C398.567902,405.989624 399.961029,405.839172 402.024658,405.718506 
	C363.059052,355.477386 324.557556,305.834656 285.542511,255.529785 
	C288.115387,255.254639 289.761444,255.267090 291.309174,254.883163 
	C303.373199,251.890518 316.204102,250.541626 327.325256,245.460999 
	C363.964325,228.722733 387.796722,200.992569 394.577850,160.331375 
	C398.015320,139.719467 397.024567,119.074875 388.713745,99.929596 
	C368.421875,53.184017 331.692169,28.877546 281.156342,27.254028 
	C239.876373,25.927862 198.522919,26.885691 157.202026,26.852230 
	C156.274658,26.851479 155.347092,27.106773 154.164719,27.279966 
	C154.164719,57.562992 154.164719,87.531456 154.164719,118.499931 
z"/>
<path fill="#000000" opacity="1.000000" stroke="none" 
	d="
M1.000000,473.468658 
	C175.687561,472.999939 350.375122,472.999878 525.531372,472.999908 
	C526.000000,490.654419 526.000000,508.308838 526.000000,525.956970 
	C351.000000,525.950684 175.999985,525.950684 1.000000,525.950684 
	C1.000000,508.579987 1.000000,491.258636 1.000000,473.468658 
z"/>
<path fill="#FFFEFE" opacity="1.000000" stroke="none" 
	d="
M154.164719,117.999924 
	C154.164719,87.531456 154.164719,57.562992 154.164719,27.279966 
	C155.347092,27.106773 156.274658,26.851479 157.202026,26.852230 
	C198.522919,26.885691 239.876373,25.927862 281.156342,27.254028 
	C331.692169,28.877546 368.421875,53.184017 388.713745,99.929596 
	C397.024567,119.074875 398.015320,139.719467 394.577850,160.331375 
	C387.796722,200.992569 363.964325,228.722733 327.325256,245.460999 
	C316.204102,250.541626 303.373199,251.890518 291.309174,254.883163 
	C289.761444,255.267090 288.115387,255.254639 285.542511,255.529785 
	C324.557556,305.834656 363.059052,355.477386 402.024658,405.718506 
	C399.961029,405.839172 398.567902,405.989624 397.174591,405.991394 
	C383.178528,406.009003 369.180664,405.878571 355.187683,406.085785 
	C351.509796,406.140228 349.210968,405.131470 346.948761,402.065308 
	C312.149323,354.899109 277.167969,307.867157 242.354385,260.711334 
	C239.867065,257.342224 237.442886,255.751160 233.037369,255.872620 
	C219.927048,256.234100 206.800369,256.002258 193.348907,256.002258 
	C193.348907,306.062134 193.348907,355.661621 193.348907,405.631348 
	C180.292603,405.631348 167.563553,405.631348 154.164719,405.631348 
	C154.164719,309.973175 154.164719,214.236557 154.164719,117.999924 
M262.499023,218.503891 
	C268.162323,218.502167 273.825623,218.497055 279.488922,218.499390 
	C294.755310,218.505692 309.374512,215.786301 322.221771,207.071899 
	C343.085022,192.920197 354.749146,173.028809 356.611908,147.968353 
	C358.867004,117.629852 349.624451,92.052505 323.065277,74.854988 
	C309.910095,66.336761 294.886230,64.130684 279.558624,64.043800 
	C252.409027,63.889908 225.257919,64.000435 198.107452,64.000305 
	C196.532455,64.000298 194.957458,64.000305 193.409882,64.000305 
	C193.409882,115.864494 193.409882,166.935928 193.409882,218.503830 
	C216.266418,218.503830 238.882843,218.503830 262.499023,218.503891 
z"/>
<path fill="#B5262D" opacity="1.000000" stroke="none" 
	d="
M261.999146,218.503860 
	C238.882843,218.503830 216.266418,218.503830 193.409882,218.503830 
	C193.409882,166.935928 193.409882,115.864494 193.409882,64.000305 
	C194.957458,64.000305 196.532455,64.000298 198.107452,64.000305 
	C225.257919,64.000435 252.409027,63.889908 279.558624,64.043800 
	C294.886230,64.130684 309.910095,66.336761 323.065277,74.854988 
	C349.624451,92.052505 358.867004,117.629852 356.611908,147.968353 
	C354.749146,173.028809 343.085022,192.920197 322.221771,207.071899 
	C309.374512,215.786301 294.755310,218.505692 279.488922,218.499390 
	C273.825623,218.497055 268.162323,218.502167 261.999146,218.503860 
z"/>
</svg>