<svg version="1.1" id="Layer_1" xmlns="http://www.w3.org/2000/svg" xmlns:xlink="http://www.w3.org/1999/xlink" x="0px" y="0px"
	 width="100%" viewBox="0 0 120 227" enable-background="new 0 0 120 227" xml:space="preserve">
<path fill="#BF292F" opacity="1.000000" stroke="none" 
	d="
M3.000000,1.000000 
	C41.354229,1.000000 79.708458,1.000000 118.530296,1.468657 
	C118.997383,30.359245 118.996529,58.781178 118.996452,87.203110 
	C118.996407,104.187401 119.071350,121.172218 118.952225,138.155670 
	C118.917488,143.107681 118.330696,148.055817 117.528526,153.012924 
	C83.451233,153.022125 49.842365,153.021744 16.233494,153.027344 
	C3.030328,153.029541 3.003009,153.035645 2.999829,139.761536 
	C2.988748,93.507690 2.998295,47.253845 3.000000,1.000000 
M26.139399,25.199253 
	C25.775860,28.139008 25.103348,31.078003 25.096115,34.018635 
	C25.015299,66.885925 25.006540,99.753555 25.101921,132.620743 
	C25.108101,134.749985 26.128584,136.876297 26.930122,139.423813 
	C26.930122,139.423813 27.151285,139.861206 27.418184,140.524246 
	C30.080566,142.456070 32.637043,142.964691 35.578930,139.415970 
	C35.578930,124.173943 35.578930,108.931923 35.578930,93.159409 
	C44.894890,93.159409 53.181110,93.331024 61.454372,93.078407 
	C64.965454,92.971199 66.783607,94.175850 68.338730,97.317596 
	C75.051575,110.879211 82.168694,124.241013 88.854012,137.815735 
	C90.537872,141.234863 92.301819,141.855728 95.363052,140.006195 
	C96.584236,139.268372 97.861389,138.623215 99.438728,137.757019 
	C91.510376,122.206184 83.783791,107.051102 76.224739,92.224625 
	C80.497719,89.683304 84.453537,88.034775 87.534798,85.373627 
	C99.547081,74.999168 100.390373,61.325935 96.791847,47.355217 
	C93.221947,33.495625 82.504784,26.677237 68.990334,25.126429 
	C58.790379,23.955963 48.391361,24.442215 38.079639,24.364687 
	C34.310238,24.336348 30.537079,24.808441 26.139399,25.199253 
z"/>
<path fill="#C2272D" opacity="1.000000" stroke="none" 
	d="
M119.000000,228.000000 
	C81.312439,228.000000 43.624878,228.000000 5.467201,227.531342 
	C4.995643,217.937057 5.104304,208.808990 4.903354,199.687759 
	C4.861259,197.776993 3.678553,195.891342 3.014907,193.526596 
	C3.013009,187.375229 3.017657,181.691406 3.327386,175.861176 
	C4.417046,173.801025 5.201625,171.887268 6.404733,169.928436 
	C9.293508,169.600418 11.763492,169.073959 14.234041,169.071304 
	C48.146446,169.034744 82.058929,169.070404 116.067375,169.455841 
	C116.775963,174.180084 117.661621,178.519318 117.942650,182.897354 
	C118.479057,191.253799 118.670845,199.632370 119.003403,208.375916 
	C118.999031,209.498474 118.996941,210.246872 118.916748,211.112366 
	C118.739738,211.513199 118.791313,211.771805 118.993034,212.471802 
	C118.995132,217.958893 118.997566,222.979446 119.000000,228.000000 
z"/>
<path fill="#100001" opacity="1.000000" stroke="none" 
	d="
M1.000000,167.000000 
	C1.000000,163.637894 1.000000,160.275803 1.464053,156.383087 
	C21.691732,155.837494 41.455399,155.791550 61.218975,155.816162 
	C81.146027,155.840973 101.072998,155.935837 121.000000,156.000000 
	C121.000000,159.362106 121.000000,162.724197 120.531708,166.522675 
	C80.375603,166.972702 40.687801,166.986343 1.000000,167.000000 
z"/>
<path fill="#9C2E31" opacity="1.000000" stroke="none" 
	d="
M121.000000,155.625000 
	C101.072998,155.935837 81.146027,155.840973 61.218975,155.816162 
	C41.455399,155.791550 21.691732,155.837494 1.464053,155.926239 
	C1.000000,105.661339 0.992344,55.322670 1.041879,4.984055 
	C1.043186,3.655723 1.666667,2.328005 2.500000,1.000000 
	C2.998295,47.253845 2.988748,93.507690 2.999829,139.761536 
	C3.003009,153.035645 3.030328,153.029541 16.233494,153.027344 
	C49.842365,153.021744 83.451233,153.022125 117.903976,153.017090 
	C119.498573,153.009369 120.249283,153.004684 121.000000,153.000000 
	C121.000000,153.750000 121.000000,154.500000 121.000000,155.625000 
z"/>
<path fill="#9D3438" opacity="1.000000" stroke="none" 
	d="
M1.000000,167.468658 
	C40.687801,166.986343 80.375603,166.972702 120.531708,166.979523 
	C121.000000,167.750000 121.000000,168.500000 120.635071,169.595856 
	C118.837234,169.657242 117.404312,169.372787 115.971397,169.088333 
	C82.058929,169.070404 48.146446,169.034744 14.234041,169.071304 
	C11.763492,169.073959 9.293508,169.600418 6.058316,170.035019 
	C4.536349,172.126968 3.779327,174.067276 3.022305,176.007568 
	C3.017657,181.691406 3.013009,187.375229 3.003179,193.995636 
	C2.998665,205.954788 2.999333,216.977402 3.000000,228.000000 
	C-0.036597,228.610260 1.035340,226.304764 1.032233,225.034912 
	C0.985663,206.002457 1.000000,186.969879 1.000000,167.468658 
z"/>
<path fill="#B92B32" opacity="1.000000" stroke="none" 
	d="
M121.000000,152.531342 
	C120.249283,153.004684 119.498573,153.009369 118.372406,153.009888 
	C118.330696,148.055817 118.917488,143.107681 118.952225,138.155670 
	C119.071350,121.172218 118.996407,104.187401 118.996452,87.203110 
	C118.996529,58.781178 118.997383,30.359245 118.998955,1.468657 
	C119.666664,1.330486 120.783981,1.541963 120.909027,2.015478 
	C121.196213,3.102980 121.000000,4.318140 121.000000,5.481483 
	C121.000000,54.341881 121.000000,103.202286 121.000000,152.531342 
z"/>
<path fill="#B82B32" opacity="1.000000" stroke="none" 
	d="
M116.067375,169.455841 
	C117.404312,169.372787 118.837234,169.657242 120.635071,169.970856 
	C121.000000,182.020889 121.000000,194.041794 120.749725,206.654724 
	C120.001526,207.498428 119.503601,207.750092 119.005684,208.001755 
	C118.670845,199.632370 118.479057,191.253799 117.942650,182.897354 
	C117.661621,178.519318 116.775963,174.180084 116.067375,169.455841 
z"/>
<path fill="#B82B32" opacity="1.000000" stroke="none" 
	d="
M3.333333,228.000000 
	C2.999333,216.977402 2.998665,205.954788 3.009726,194.463165 
	C3.678553,195.891342 4.861259,197.776993 4.903354,199.687759 
	C5.104304,208.808990 4.995643,217.937057 4.998544,227.531342 
	C4.555555,228.000000 4.111111,228.000000 3.333333,228.000000 
z"/>
<path fill="#B12D33" opacity="1.000000" stroke="none" 
	d="
M119.003403,208.375916 
	C119.503601,207.750092 120.001526,207.498428 120.749725,207.123383 
	C121.000000,213.333328 121.029831,219.667023 120.956192,225.999496 
	C120.948395,226.669952 120.333336,227.333328 119.500000,228.000000 
	C118.997566,222.979446 118.995132,217.958893 118.994095,212.219299 
	C118.995277,211.331924 118.995064,211.163589 118.994843,210.995255 
	C118.996941,210.246872 118.999031,209.498474 119.003403,208.375916 
z"/>
<path fill="#FCEDEE" opacity="1.000000" stroke="none" 
	d="
M27.151285,139.861206 
	C27.151285,139.861206 26.930122,139.423813 26.911678,138.758606 
	C26.850700,100.413002 26.808168,62.732620 26.765635,25.052238 
	C30.537079,24.808441 34.310238,24.336348 38.079639,24.364687 
	C48.391361,24.442215 58.790379,23.955963 68.990334,25.126429 
	C82.504784,26.677237 93.221947,33.495625 96.791847,47.355217 
	C100.390373,61.325935 99.547081,74.999168 87.534798,85.373627 
	C84.453537,88.034775 80.497719,89.683304 76.224739,92.224625 
	C83.783791,107.051102 91.510376,122.206184 99.438728,137.757019 
	C97.861389,138.623215 96.584236,139.268372 95.363052,140.006195 
	C92.301819,141.855728 90.537872,141.234863 88.854012,137.815735 
	C82.168694,124.241013 75.051575,110.879211 68.338730,97.317596 
	C66.783607,94.175850 64.965454,92.971199 61.454372,93.078407 
	C53.181110,93.331024 44.894890,93.159409 35.578930,93.159409 
	C35.578930,108.931923 35.578930,124.173943 34.828289,139.625259 
	C31.768860,139.843430 29.460073,139.852310 27.151285,139.861206 
M51.501682,33.726540 
	C46.427330,33.726540 41.352982,33.726540 36.363899,33.726540 
	C36.363899,50.937035 36.363899,67.281891 36.363899,83.803024 
	C46.740551,83.803024 56.756664,84.536224 66.623238,83.634048 
	C82.066597,82.221947 89.500580,72.713631 88.984131,56.786114 
	C88.553818,43.515045 79.481346,34.785034 64.963043,33.864124 
	C60.822151,33.601460 56.654453,33.761356 51.501682,33.726540 
z"/>
<path fill="#A75257" opacity="1.000000" stroke="none" 
	d="
M26.452517,25.125746 
	C26.808168,62.732620 26.850700,100.413002 26.785236,138.548676 
	C26.128584,136.876297 25.108101,134.749985 25.101921,132.620743 
	C25.006540,99.753555 25.015299,66.885925 25.096115,34.018635 
	C25.103348,31.078003 25.775860,28.139008 26.452517,25.125746 
z"/>
<path fill="#A75257" opacity="1.000000" stroke="none" 
	d="
M27.284735,140.192719 
	C29.460073,139.852310 31.768860,139.843430 34.505051,139.899811 
	C32.637043,142.964691 30.080566,142.456070 27.284735,140.192719 
z"/>
<path fill="#B82B32" opacity="1.000000" stroke="none" 
	d="
M3.327386,175.861176 
	C3.779327,174.067276 4.536349,172.126968 5.639787,170.080109 
	C5.201625,171.887268 4.417046,173.801025 3.327386,175.861176 
z"/>
<path fill="#B82B32" opacity="1.000000" stroke="none" 
	d="
M118.916748,211.112366 
	C118.995064,211.163589 118.995277,211.331924 118.994431,211.752762 
	C118.791313,211.771805 118.739738,211.513199 118.916748,211.112366 
z"/>
<path fill="#BD2B31" opacity="1.000000" stroke="none" 
	d="
M52.000366,33.727009 
	C56.654453,33.761356 60.822151,33.601460 64.963043,33.864124 
	C79.481346,34.785034 88.553818,43.515045 88.984131,56.786114 
	C89.500580,72.713631 82.066597,82.221947 66.623238,83.634048 
	C56.756664,84.536224 46.740551,83.803024 36.363899,83.803024 
	C36.363899,67.281891 36.363899,50.937035 36.363899,33.726540 
	C41.352982,33.726540 46.427330,33.726540 52.000366,33.727009 
z"/>
</svg>